<svg width="17" height="17" viewBox="0 0 17 17" fill="none" xmlns="http://www.w3.org/2000/svg">
<path d="M11.0852 1.41663C11.3859 1.41592 11.6237 1.64955 11.6244 1.96106L11.6251 2.49205C13.5763 2.64497 14.8652 3.97456 14.8673 6.01354L14.875 11.9818C14.8778 14.2048 13.4812 15.5727 11.2425 15.5762L5.77426 15.5833C3.5496 15.5861 2.1355 14.1857 2.1327 11.9563L2.125 6.05814C2.12221 4.00571 3.36567 2.67966 5.31688 2.50054L5.31618 1.96956C5.31548 1.65805 5.54627 1.42371 5.85398 1.42371C6.1617 1.423 6.39249 1.65663 6.39319 1.96814L6.39389 2.46373L10.5481 2.45807L10.5474 1.96248C10.5467 1.65097 10.7775 1.41734 11.0852 1.41663ZM11.3705 11.4692H11.3635C11.0418 11.477 10.7838 11.7467 10.7907 12.0724C10.7914 12.3981 11.0509 12.6664 11.3726 12.6735C11.7006 12.6728 11.9664 12.403 11.9657 12.0703C11.9657 11.7375 11.6992 11.4692 11.3705 11.4692ZM5.60781 11.4699C5.2861 11.4841 5.03434 11.7538 5.03503 12.0795C5.04972 12.4052 5.31548 12.66 5.63718 12.6452C5.95259 12.631 6.20366 12.3613 6.18897 12.0356C6.18198 11.717 5.92252 11.4692 5.60781 11.4699ZM8.48916 11.4664C8.16746 11.4813 7.91639 11.7503 7.91639 12.076C7.93107 12.4016 8.19683 12.6558 8.51853 12.6416C8.83324 12.6268 9.08501 12.3577 9.07033 12.0314C9.06333 11.7135 8.80387 11.4657 8.48916 11.4664ZM5.60431 8.9212C5.28261 8.93536 5.03154 9.2051 5.03224 9.53077C5.04622 9.85644 5.31268 10.1113 5.63438 10.0964C5.94909 10.0823 6.20016 9.81255 6.18548 9.48688C6.17848 9.16829 5.91972 8.9205 5.60431 8.9212ZM8.48636 8.89642C8.16466 8.91058 7.91289 9.18032 7.91359 9.50599C7.92758 9.83166 8.19403 10.0858 8.51574 10.0717C8.83045 10.0568 9.08152 9.78777 9.06753 9.4621C9.05984 9.14351 8.80107 8.89572 8.48636 8.89642ZM11.3677 8.89996C11.046 8.90704 10.7942 9.169 10.7949 9.49467V9.50245C10.8019 9.82812 11.0677 10.0752 11.3901 10.0681C11.7048 10.0603 11.9559 9.7906 11.9489 9.46493C11.9342 9.15342 11.6817 8.89926 11.3677 8.89996ZM10.5495 3.54835L6.39528 3.55402L6.39598 4.12677C6.39598 4.43191 6.1659 4.67262 5.85818 4.67262C5.55046 4.67333 5.31897 4.43333 5.31897 4.12819L5.31827 3.58304C3.95453 3.71968 3.19992 4.52112 3.20202 6.05672L3.20272 6.2769L13.791 6.26274V6.01495C13.7609 4.4928 12.9972 3.6942 11.6265 3.57526L11.6272 4.1204C11.6272 4.42483 11.3901 4.66625 11.0894 4.66625C10.7817 4.66696 10.5502 4.42625 10.5502 4.12182L10.5495 3.54835Z" fill="#37BBFE"/>
</svg>
