<svg width="17" height="17" viewBox="0 0 17 17" fill="none" xmlns="http://www.w3.org/2000/svg">
<path d="M8.46394 10.2989C10.8944 10.2989 12.9696 10.6842 12.9696 12.2261C12.9696 13.7674 10.9077 14.1667 8.46394 14.1667C6.03351 14.1667 3.95827 13.7814 3.95827 12.2402C3.95827 10.6983 6.0202 10.2989 8.46394 10.2989ZM12.3499 9.3705C13.279 9.35327 14.278 9.48086 14.6471 9.57144C15.4291 9.72518 15.9435 10.039 16.1566 10.4952C16.3367 10.8696 16.3367 11.3041 16.1566 11.6779C15.8306 12.3854 14.7797 12.6125 14.3712 12.6711C14.2869 12.6839 14.219 12.6105 14.2279 12.5257C14.4365 10.5653 12.7767 9.63587 12.3473 9.42217C12.329 9.4126 12.3251 9.39793 12.3271 9.389C12.3283 9.38262 12.3359 9.37241 12.3499 9.3705ZM4.65067 9.37075C4.66463 9.37266 4.6716 9.38287 4.67287 9.38861C4.67477 9.39818 4.67097 9.41222 4.65321 9.42242C4.22319 9.63613 2.56338 10.5656 2.77204 12.5253C2.78092 12.6108 2.71369 12.6835 2.62934 12.6714C2.22089 12.6127 1.16994 12.3856 0.843944 11.6781C0.663184 11.3037 0.663184 10.8699 0.843944 10.4954C1.05705 10.0393 1.57079 9.72544 2.35281 9.57106C2.72257 9.48111 3.72087 9.35353 4.65067 9.37075ZM8.46394 2.83337C10.1187 2.83337 11.4455 4.16665 11.4455 5.83164C11.4455 7.496 10.1187 8.83055 8.46394 8.83055C6.80919 8.83055 5.48236 7.496 5.48236 5.83164C5.48236 4.16665 6.80919 2.83337 8.46394 2.83337ZM12.5116 3.33338C14.1099 3.33338 15.3651 4.84591 14.9376 6.53069C14.649 7.66493 13.6044 8.41832 12.4406 8.3877C12.3239 8.38451 12.2091 8.37367 12.0981 8.35453C12.0175 8.34049 11.9769 8.24927 12.0226 8.18165C12.4666 7.52458 12.7196 6.73419 12.7196 5.88574C12.7196 5.00029 12.4431 4.17481 11.963 3.49797C11.9478 3.47692 11.9364 3.44438 11.9516 3.42014C11.9643 3.40037 11.9877 3.39016 12.0099 3.38506C12.1717 3.35188 12.3378 3.33338 12.5116 3.33338ZM4.48799 3.33332C4.66177 3.33332 4.82794 3.35182 4.99031 3.38499C5.01188 3.3901 5.03598 3.40094 5.04866 3.42008C5.06325 3.44432 5.05247 3.47685 5.03724 3.49791C4.55712 4.17475 4.28059 5.00023 4.28059 5.88568C4.28059 6.73412 4.53366 7.52452 4.97763 8.18159C5.02329 8.24921 4.9827 8.34043 4.90215 8.35447C4.79052 8.37424 4.67636 8.38445 4.55966 8.38764C3.39582 8.41826 2.35122 7.66486 2.06264 6.53062C1.63453 4.84585 2.8897 3.33332 4.48799 3.33332Z" fill="#37BBFE"/>
</svg>
