<svg width="13" height="20" viewBox="0 0 13 20" fill="none" xmlns="http://www.w3.org/2000/svg">
<path d="M2.26688e-05 6.09337C0.000162167 4.52893 0.601871 3.02449 1.68053 1.89165C2.75934 0.758697 4.23253 0.0840633 5.79512 0.0073144C7.3576 -0.0692738 8.88979 0.457915 10.0743 1.47979C11.2589 2.50167 12.005 3.93987 12.1583 5.49688C12.3115 7.05379 11.8602 8.60998 10.8976 9.84325C9.93513 11.0765 8.53519 11.8923 6.98764 12.1218C6.98917 12.1437 6.99238 12.1656 6.99238 12.1874V12.825C7.1351 12.8519 7.26386 12.9279 7.35663 13.0397C7.44926 13.1515 7.50004 13.2922 7.50018 13.4374V18.5938C7.50018 19.0961 7.23219 19.5604 6.79705 19.8117C6.36191 20.0628 5.82595 20.0628 5.39082 19.8117C4.95568 19.5604 4.68768 19.0961 4.68768 18.5938V13.4374C4.6881 13.3063 4.72995 13.1786 4.80696 13.0726C4.88411 12.9666 4.99278 12.8876 5.11736 12.8467V12.1874C5.11778 12.1613 5.11987 12.1352 5.12364 12.1093C3.69495 11.877 2.39543 11.1444 1.45691 10.0426C0.518454 8.94069 0.00213951 7.54113 0.000175255 6.09376L2.26688e-05 6.09337ZM5.74209 12.8118H6.36708V12.1869H5.74209V12.8118ZM6.09365 10.9369C7.37823 10.9369 8.61022 10.4266 9.51867 9.51822C10.427 8.60973 10.9373 7.37775 10.9373 6.09319C10.9373 4.80864 10.427 3.57662 9.51867 2.66817C8.61018 1.75983 7.3782 1.24951 6.09365 1.24951C4.80909 1.24951 3.57707 1.75983 2.66862 2.66817C1.76028 3.57666 1.24996 4.80864 1.24996 6.09319C1.25164 7.37735 1.76238 8.60837 2.67041 9.51643C3.57847 10.4245 4.80948 10.9352 6.09365 10.9369Z" fill="#3D3D3D"/>
<path d="M5.31214 6.09338C5.31228 5.88621 5.39459 5.68756 5.54107 5.54107C5.68755 5.39458 5.88621 5.31228 6.09338 5.31213C6.27614 5.31255 6.45274 5.37798 6.59184 5.49656C6.56408 5.48275 6.53367 5.47522 6.50269 5.47466C6.40699 5.47159 6.32134 5.53353 6.29441 5.62533C6.26735 5.71726 6.30599 5.81576 6.38816 5.86486C6.47033 5.91411 6.57524 5.90141 6.64346 5.83417C6.71168 5.76693 6.72577 5.66216 6.67778 5.57929C6.847 5.77167 6.91103 6.03493 6.84895 6.28353C6.78687 6.53213 6.60677 6.73442 6.36696 6.82467C6.12715 6.91493 5.85832 6.88159 5.64779 6.73566C5.43714 6.58974 5.31172 6.34963 5.31214 6.09338Z" fill="#3D3D3D"/>
<path d="M6.09344 1.87488C7.21228 1.87488 8.28538 2.31934 9.07651 3.1105C9.86764 3.90167 10.3121 4.97473 10.3121 6.09357C10.3121 7.21241 9.86768 8.2855 9.07651 9.07663C8.28534 9.86776 7.21228 10.3123 6.09344 10.3123C4.9746 10.3123 3.90151 9.8678 3.11038 9.07663C2.31925 8.28547 1.87475 7.21241 1.87475 6.09357C1.87489 4.97473 2.31935 3.90178 3.11052 3.11065C3.90165 2.31951 4.9746 1.87502 6.09344 1.87488ZM9.06215 6.09339C9.06215 6.26596 9.20208 6.40589 9.37465 6.40589C9.54722 6.40589 9.68714 6.26596 9.68714 6.09339C9.68589 5.14069 9.30697 4.2272 8.6333 3.55353C7.95963 2.87986 7.04614 2.50094 6.09344 2.49969C5.92087 2.49969 5.78095 2.63962 5.78095 2.81219C5.78095 2.98476 5.92087 3.12468 6.09344 3.12468C6.88054 3.12538 7.63528 3.43843 8.19191 3.99492C8.74841 4.55155 9.06147 5.30629 9.06215 6.09339ZM8.12466 6.09339C8.12466 5.55461 7.91066 5.03801 7.52967 4.65716C7.14882 4.27617 6.63222 4.06217 6.09344 4.06217C5.55467 4.06217 5.03807 4.27617 4.65721 4.65716C4.27622 5.03801 4.06222 5.55461 4.06222 6.09339C4.06222 6.63217 4.27623 7.14877 4.65721 7.52962C5.03807 7.91061 5.55467 8.12461 6.09344 8.12461C6.63194 8.12405 7.14825 7.90977 7.5291 7.52905C7.90981 7.1482 8.12409 6.63188 8.12466 6.09339ZM6.09344 9.68691C6.26601 9.68691 6.40594 9.54698 6.40594 9.37441C6.40594 9.20185 6.26601 9.06192 6.09344 9.06192C5.30635 9.06122 4.55161 8.74817 3.99497 8.19168C3.43848 7.63505 3.12541 6.88031 3.12474 6.09321C3.12474 5.92064 2.98481 5.78072 2.81224 5.78072C2.63967 5.78072 2.49974 5.92064 2.49974 6.09321C2.501 7.04591 2.87992 7.9594 3.55359 8.63307C4.22726 9.30674 5.14074 9.68566 6.09344 9.68691Z" fill="#3D3D3D"/>
</svg>
