<svg width="18" height="13" viewBox="0 0 18 13" fill="none" xmlns="http://www.w3.org/2000/svg">
<path d="M16.2656 6.41955H14.2375C14.042 6.41955 13.8837 6.26107 13.8837 6.06567C13.8837 5.87027 14.042 5.71179 14.2375 5.71179H16.2656C16.4609 5.71179 16.6194 5.87027 16.6194 6.06567C16.6194 6.26107 16.461 6.41955 16.2656 6.41955Z" fill="#3D3D3D"/>
<path d="M16.9915 7.07413C16.7241 7.07413 16.4676 6.96785 16.2785 6.77879C16.0893 6.5896 15.983 6.33306 15.983 6.06563C15.983 5.7982 16.0893 5.54168 16.2785 5.35248C16.4676 5.16341 16.7241 5.05713 16.9915 5.05713C17.2591 5.05713 17.5156 5.16341 17.7047 5.35248C17.8939 5.54167 18 5.7982 18 6.06563C17.9998 6.33305 17.8934 6.58936 17.7043 6.7784C17.5152 6.96744 17.2589 7.07388 16.9915 7.07413Z" fill="#3D3D3D"/>
<path d="M13.2984 3.30976C13.1552 3.30976 13.0262 3.22357 12.9715 3.09138C12.9168 2.95919 12.947 2.8069 13.0482 2.7058L14.4824 1.27178C14.6205 1.13353 14.8446 1.13353 14.9827 1.27178C15.1208 1.40991 15.1208 1.63397 14.9827 1.77212L13.5486 3.20613C13.4823 3.27261 13.3922 3.30989 13.2984 3.30976Z" fill="#3D3D3D"/>
<path d="M15.2458 2.01666C14.9091 2.01666 14.5945 1.84845 14.4075 1.56841C14.2203 1.28849 14.1854 0.933488 14.3144 0.62235C14.4433 0.311332 14.7189 0.0850004 15.0493 0.0193886C15.3796 -0.0463266 15.7208 0.0573029 15.9589 0.295398V0.295524C16.1481 0.484588 16.2545 0.741024 16.2545 1.00855C16.2545 1.27597 16.1482 1.53251 15.959 1.72158C15.7699 1.91065 15.5133 2.01679 15.2458 2.01666Z" fill="#3D3D3D"/>
<path d="M14.8925 11.123C14.7986 11.1232 14.7085 11.0859 14.6422 11.0194L13.2081 9.58539C13.07 9.44713 13.07 9.2232 13.2081 9.08492C13.3463 8.94679 13.5703 8.94679 13.7086 9.08492L15.1427 10.5189H15.1426C15.2438 10.6202 15.274 10.7723 15.2193 10.9046C15.1646 11.0368 15.0355 11.123 14.8925 11.123Z" fill="#3D3D3D"/>
<path d="M15.4055 12.2906C15.0921 12.2904 14.7966 12.1444 14.606 11.8957C14.4153 11.647 14.3513 11.3237 14.4326 11.021C14.5139 10.7185 14.7313 10.4708 15.021 10.351C15.3105 10.2313 15.6393 10.253 15.9107 10.4099C16.182 10.5667 16.3649 10.8408 16.4057 11.1515C16.4464 11.4622 16.3404 11.7743 16.1186 11.9957V11.9958C15.9296 12.185 15.6729 12.2911 15.4055 12.2906Z" fill="#3D3D3D"/>
<path d="M3.76273 6.41955H1.73449C1.53911 6.41955 1.38062 6.26107 1.38062 6.06567C1.38062 5.87027 1.53909 5.71179 1.73449 5.71179H3.76273C3.95811 5.71179 4.11661 5.87027 4.11661 6.06567C4.11661 6.26107 3.95813 6.41955 3.76273 6.41955Z" fill="#3D3D3D"/>
<path d="M1.0085 7.07413C0.74096 7.07413 0.484417 6.96785 0.295347 6.77879C0.106156 6.5896 0 6.33306 0 6.06563C0 5.7982 0.106156 5.54168 0.295347 5.35248C0.484411 5.16341 0.740944 5.05713 1.0085 5.05713C1.27592 5.05713 1.53246 5.16341 1.72153 5.35248C1.91072 5.54167 2.017 5.7982 2.017 6.06563C2.01662 6.33305 1.91034 6.58936 1.72128 6.7784C1.53222 6.96744 1.27577 7.07388 1.0085 7.07413Z" fill="#3D3D3D"/>
<path d="M4.70154 3.30976C4.60764 3.30989 4.51766 3.27261 4.45131 3.20613L3.01729 1.77212C2.87916 1.63399 2.87916 1.40993 3.01729 1.27178C3.15543 1.13353 3.37949 1.13353 3.51776 1.27178L4.95177 2.7058C5.05288 2.8069 5.08321 2.95918 5.02836 3.09138C4.97364 3.22357 4.84461 3.30976 4.70154 3.30976Z" fill="#3D3D3D"/>
<path d="M2.75431 2.01662C2.4409 2.01649 2.14543 1.87052 1.95484 1.62181C1.76414 1.3731 1.70006 1.04981 1.78132 0.747151C1.86258 0.44449 2.07996 0.196763 2.36963 0.0770897C2.65916 -0.0427164 2.98799 -0.0211079 3.25933 0.135729C3.53067 0.292567 3.71367 0.566671 3.7545 0.877453C3.79519 1.18809 3.68916 1.50012 3.46749 1.72167C3.27843 1.91099 3.02187 2.01712 2.75431 2.01662Z" fill="#3D3D3D"/>
<path d="M3.10786 11.123C2.96479 11.123 2.83576 11.0368 2.78093 10.9046C2.72621 10.7723 2.75654 10.6202 2.85764 10.5189L4.29178 9.08492C4.42991 8.94679 4.65397 8.94679 4.79212 9.08492C4.93038 9.22318 4.93038 9.44711 4.79212 9.58539L3.35811 11.0194C3.29176 11.0859 3.20176 11.1232 3.10786 11.123Z" fill="#3D3D3D"/>
<path d="M2.59447 12.2906C2.28118 12.2904 1.98572 12.1444 1.79513 11.8957C1.60442 11.647 1.54035 11.3237 1.62173 11.021C1.703 10.7184 1.92037 10.4708 2.21004 10.351C2.49957 10.2313 2.8284 10.253 3.09975 10.4099C3.37108 10.5667 3.55395 10.8408 3.59478 11.1515C3.63547 11.4622 3.52944 11.7743 3.30765 11.9957C3.11871 12.185 2.86203 12.2911 2.59447 12.2906Z" fill="#3D3D3D"/>
<path d="M9 0.669189C7.54764 0.669189 6.15472 1.24611 5.12768 2.27305C4.1006 3.30013 3.52368 4.69296 3.52368 6.14538C3.52356 7.59773 4.1006 8.99065 5.12755 10.0177C6.15449 11.0446 7.54745 11.6217 8.99987 11.6217C10.4522 11.6217 11.8451 11.0446 12.8722 10.0177C13.8993 8.99075 14.4762 7.5978 14.4762 6.14538C14.4747 4.69354 13.8971 3.30162 12.8704 2.27499C11.8439 1.24831 10.4519 0.670872 9.00003 0.669222L9 0.669189ZM11.6065 7.88778L9.31948 9.04226C9.21636 9.14538 9.07658 9.20326 8.93073 9.20326C8.78502 9.20326 8.64524 9.14538 8.54211 9.04226L6.25505 7.88778C6.15192 7.78465 6.09404 7.64488 6.09404 7.49915C6.09404 7.35331 6.15192 7.21354 6.25505 7.1104L6.60828 6.88835L8.41852 7.80206V7.80219C8.55867 7.92945 8.74129 8.0001 8.93073 8.0001C9.12017 8.0001 9.30279 7.92945 9.44307 7.80219L11.2534 6.88848L11.6065 7.1104C11.7095 7.21352 11.7676 7.3533 11.7676 7.49915C11.7676 7.64487 11.7095 7.78464 11.6065 7.88778ZM11.6065 6.47233L9.31948 7.62682C9.21636 7.72994 9.07658 7.78782 8.93073 7.78782C8.78502 7.78782 8.64524 7.72994 8.54211 7.62682L6.25505 6.47233C6.15192 6.36921 6.09404 6.22944 6.09404 6.08371C6.09404 5.93787 6.15192 5.7981 6.25505 5.69496L6.60828 5.47291L8.41852 6.38662V6.38675C8.55867 6.51401 8.74129 6.58466 8.93073 6.58466C9.12017 6.58466 9.30279 6.51401 9.44307 6.38675L11.2534 5.47304L11.6065 5.69496C11.7095 5.79808 11.7676 5.93786 11.7676 6.08371C11.7676 6.22943 11.7095 6.3692 11.6065 6.47233ZM11.6065 5.05689L9.31948 6.21138C9.21636 6.3145 9.07658 6.37238 8.93073 6.37238C8.78502 6.37238 8.64524 6.3145 8.54211 6.21138L6.25505 5.05689C6.15192 4.95377 6.09404 4.81399 6.09404 4.66827C6.09404 4.52243 6.15192 4.38266 6.25505 4.27952L8.54211 3.26658C8.64523 3.16358 8.78501 3.10557 8.93073 3.10557C9.07657 3.10557 9.21635 3.16358 9.31948 3.26658L11.6065 4.27952C11.7095 4.38264 11.7676 4.52242 11.7676 4.66827C11.7676 4.81398 11.7095 4.95376 11.6065 5.05689Z" fill="#3D3D3D"/>
</svg>
