<svg width="17" height="18" viewBox="0 0 17 18" fill="none" xmlns="http://www.w3.org/2000/svg">
<path d="M3.29822e-05 9.00403C3.29822e-05 4.49486 3.67759 0.8173 8.18676 0.8173V0.0964402C8.18676 0.0225755 8.27919 -0.0329839 8.33462 0.0225755L10.2565 1.35315C10.3119 1.39015 10.3119 1.46401 10.2565 1.50101L8.33462 2.83158C8.27919 2.86858 8.18676 2.83158 8.18676 2.75772V2.03699C4.34288 2.03699 1.21973 5.16018 1.21973 9.00403C1.21973 11.2216 2.29158 13.3469 4.10261 14.6405L3.38188 15.6382C1.25672 14.1044 0 11.6095 0 9.00383L3.29822e-05 9.00403ZM12.9916 2.36964L12.2709 3.34909C14.0819 4.66112 15.1538 6.78641 15.1538 9.00403C15.1538 12.8479 12.0306 15.9711 8.18673 15.9711V15.2503C8.18673 15.1765 8.0943 15.1209 8.03887 15.1765L6.117 16.507C6.06157 16.544 6.06157 16.6179 6.117 16.6549L8.03887 17.9855C8.0943 18.0225 8.18673 17.9855 8.18673 17.9116V17.1909C12.6959 17.1909 16.3735 13.5133 16.3735 9.00416C16.3735 6.39815 15.1169 3.90329 12.9916 2.36944L12.9916 2.36964ZM12.1599 6.19504L11.624 6.7309C11.9198 7.17446 12.1415 7.67336 12.2339 8.20935L12.9916 8.20948C13.1765 8.20948 13.3242 8.35734 13.3242 8.54206V9.46607C13.3242 9.65092 13.1763 9.79864 12.9916 9.79864H12.2154C12.1046 10.3345 11.9013 10.8335 11.6056 11.2771L12.1415 11.813C12.2709 11.9424 12.2709 12.1641 12.1415 12.2934L11.4946 12.9403C11.3652 13.0697 11.1434 13.0697 11.0141 12.9403L10.4783 12.4044C10.0347 12.7001 9.53582 12.9219 8.99983 13.0143V13.7904C8.99983 13.9753 8.85197 14.123 8.66725 14.123H7.74324C7.55838 14.123 7.41066 13.9752 7.41066 13.7904V13.0143C6.8748 12.9034 6.3758 12.7001 5.93221 12.4044L5.39635 12.9403C5.26693 13.0697 5.0452 13.0697 4.9159 12.9403L4.21349 12.3305C4.08406 12.2011 4.08406 11.9794 4.21349 11.8501L4.74935 11.3142C4.45363 10.8707 4.2319 10.3718 4.1395 9.83577L3.38178 9.83564C3.19692 9.83564 3.0492 9.68778 3.0492 9.50306V8.57905C3.0492 8.3942 3.19706 8.24647 3.38178 8.24647H4.15795C4.26881 7.71061 4.47209 7.21162 4.76779 6.76803L4.23193 6.23217C4.10251 6.10274 4.10251 5.88101 4.23193 5.75171L4.87881 5.10484C5.00823 4.97542 5.22996 4.97542 5.35926 5.10484L5.89512 5.6407C6.33868 5.34499 6.83758 5.12325 7.37357 5.03085V4.25468C7.37357 4.06983 7.52143 3.92211 7.70615 3.92211H8.63016C8.81501 3.92211 8.96274 4.06996 8.96274 4.25468V5.03085C9.4986 5.14171 9.99759 5.345 10.4412 5.6407L10.977 5.10484C11.1065 4.97542 11.3282 4.97542 11.4575 5.10484L12.1044 5.75171C12.2894 5.84388 12.2893 6.06573 12.1599 6.19504ZM9.60974 9.17035H8.8706L8.87047 7.24848C8.87047 7.15605 8.7966 7.10062 8.72261 7.10062H7.63231C7.53988 7.10062 7.48445 7.17448 7.48445 7.24848V9.17035H6.74531C6.67145 9.17035 6.61589 9.26278 6.67145 9.31821L8.07591 11.0368C8.13134 11.0922 8.20533 11.0922 8.26076 11.0368L9.66523 9.31821C9.73909 9.26278 9.70222 9.17035 9.6098 9.17035H9.60974Z" fill="#3D3D3D"/>
</svg>
