<svg width="24" height="24" viewBox="0 0 24 24" fill="none" xmlns="http://www.w3.org/2000/svg">
<path d="M20.4854 3.51481C18.235 1.26447 15.1828 0 12.0001 0C8.81756 0 5.76506 1.26412 3.51481 3.51464C1.26447 5.76497 0 8.81717 0 11.9999C0 15.1824 1.26412 18.2349 3.51464 20.4852C5.76497 22.7355 8.81717 24 11.9999 24C15.1824 24 18.2349 22.7359 20.4852 20.4854C22.7355 18.235 24 15.1828 24 12.0001C24 8.81756 22.7359 5.76506 20.4854 3.51481ZM19.7177 19.7179C17.6708 21.7648 14.8945 22.9147 11.9999 22.9147C9.10519 22.9147 6.32872 21.7648 4.28204 19.7179C2.23519 17.6711 1.08529 14.8948 1.08529 12.0001C1.08529 9.10541 2.23519 6.32894 4.28204 4.28226C6.32889 2.23541 9.10519 1.0855 11.9999 1.0855C14.8945 1.0855 17.671 2.23541 19.7177 4.28226C21.7645 6.32911 22.9145 9.10541 22.9145 12.0001C22.9145 14.8948 21.7645 17.6712 19.7177 19.7179ZM19.2185 4.78134C17.3041 2.86688 14.7075 1.79136 11.9998 1.79136C9.29204 1.79136 6.69594 2.86684 4.78147 4.78134C2.86701 6.6958 1.79149 9.29235 1.79149 12.0001C1.79149 14.7078 2.86697 17.3044 4.78147 19.2188C6.69594 21.1333 9.29248 22.2088 11.9998 22.2088C14.7071 22.2088 17.3041 21.1333 19.2185 19.2188C20.4908 17.9545 21.4063 16.3764 21.8723 14.6443C22.3385 12.9124 22.3385 11.088 21.8723 9.35583C21.4063 7.62384 20.4908 6.04573 19.2185 4.78134ZM3.97725 12.6966C3.79461 12.8912 3.54082 13.0036 3.27389 13.0079C3.00711 13.0121 2.7499 12.908 2.56095 12.7194C2.37215 12.5307 2.26784 12.2737 2.27194 12.0068C2.27604 11.7398 2.38805 11.486 2.5825 11.3032C2.83389 11.0667 3.19046 10.979 3.52287 11.0715C3.85532 11.1642 4.11508 11.4238 4.20793 11.7561C4.30096 12.0884 4.21342 12.4451 3.97725 12.6966ZM11.3033 2.58275C11.4883 2.39806 11.7392 2.29443 12.0007 2.29443C12.2622 2.29443 12.5128 2.39806 12.6981 2.58275C12.8831 2.76762 12.9872 3.01866 12.9872 3.28033C12.9872 3.54198 12.8833 3.79303 12.6984 3.97808C12.5134 4.16312 12.2623 4.26709 12.0006 4.26709C11.739 4.26709 11.488 4.16312 11.3029 3.97808C11.1179 3.79304 11.0139 3.542 11.0141 3.28033C11.0141 3.01868 11.118 2.76763 11.3033 2.58275ZM7.17589 17.3232L6.27259 18.2265H6.27276C6.1339 18.3583 5.91534 18.3554 5.7799 18.2202C5.64463 18.0847 5.64172 17.8662 5.77357 17.7273L6.67687 16.824V16.8242C6.81556 16.6923 7.03428 16.6951 7.16956 16.8305C7.305 16.9658 7.30774 17.1845 7.17589 17.3232ZM7.17589 7.17606C7.10988 7.24241 7.02009 7.2797 6.92638 7.2797C6.83284 7.2797 6.74288 7.24241 6.67687 7.17606L5.77358 6.27277V6.27294C5.64173 6.13407 5.64464 5.91552 5.77991 5.78007C5.91535 5.6448 6.1339 5.6419 6.27277 5.77374L7.17607 6.67704H7.1759C7.31373 6.81487 7.31372 7.03824 7.17589 7.17606ZM12.6969 21.4174C12.5118 21.6021 12.261 21.7057 11.9995 21.7057C11.738 21.7057 11.4873 21.6021 11.3021 21.4174C11.117 21.2326 11.0129 20.9815 11.0129 20.7198C11.0129 20.4582 11.1169 20.2071 11.3017 20.0221C11.4868 19.8371 11.7378 19.7331 11.9995 19.7331C12.2612 19.7331 12.5122 19.8371 12.6972 20.0221C12.8823 20.2071 12.9862 20.4582 12.9861 20.7198C12.9861 20.9815 12.8821 21.2325 12.6969 21.4174ZM12.9443 12.9448L12.9445 12.945C12.6512 13.238 12.2384 13.3782 11.8273 13.3245C11.4161 13.2708 11.0532 13.0295 10.8451 12.6709C10.6368 12.3124 10.6067 11.8777 10.7637 11.494C10.9205 11.1102 11.2468 10.821 11.6467 10.7114V6.19602C11.6467 6.00106 11.8047 5.84305 11.9996 5.84305C12.1946 5.84305 12.3526 6.00106 12.3526 6.19602V10.7123C12.5819 10.7752 12.7904 10.8982 12.9563 11.0683C13.1223 11.2387 13.24 11.45 13.2971 11.6807L17.0431 11.7751L17.0433 11.7753C17.2348 11.7821 17.3858 11.9408 17.3834 12.1323C17.381 12.3241 17.2261 12.4788 17.0345 12.481H17.0255L13.2801 12.3853C13.2165 12.5966 13.1013 12.789 12.9449 12.9448L12.9443 12.9448ZM18.2258 18.2255C18.1598 18.2918 18.0701 18.3291 17.9763 18.3291C17.8828 18.3291 17.793 18.2918 17.7268 18.2255L16.8235 17.3222V17.3224C16.6917 17.1835 16.6946 16.9649 16.8299 16.8295C16.9653 16.6942 17.1839 16.6913 17.3227 16.8232L18.226 17.7265H18.2259C18.3637 17.8643 18.3637 18.0877 18.2258 18.2255ZM18.9193 5.58031L17.9129 6.58671V6.58688C17.7741 6.71873 17.5555 6.71582 17.4202 6.58055C17.2848 6.44511 17.282 6.22656 17.4137 6.08786L18.4203 5.08129C18.559 4.94944 18.7777 4.95235 18.913 5.08762C19.0484 5.22306 19.0512 5.44161 18.9193 5.58048L18.9193 5.58031ZM21.4176 12.6966C21.2327 12.8817 20.9819 12.9855 20.7202 12.9855C20.4587 12.9855 20.2079 12.8815 20.0228 12.6966C19.8379 12.5116 19.734 12.2607 19.734 11.999C19.734 11.7376 19.8379 11.4867 20.0228 11.3016C20.2078 11.1168 20.4587 11.0128 20.7202 11.0128C20.9819 11.0128 21.2327 11.1166 21.4176 11.3016C21.6033 11.4862 21.7078 11.7372 21.7078 11.999C21.7078 12.261 21.6033 12.5121 21.4176 12.6966ZM11.802 3.47847C11.7079 3.3839 11.6935 3.23598 11.7678 3.12516C11.8421 3.01435 11.9843 2.97142 12.1074 3.02255C12.2307 3.07386 12.3006 3.20485 12.2745 3.33567C12.2485 3.4665 12.1335 3.56073 12.0002 3.56073C11.9258 3.5609 11.8543 3.53132 11.802 3.47847ZM3.47866 11.8018C3.55869 11.882 3.58264 12.0025 3.53937 12.1072C3.49593 12.2119 3.39367 12.2803 3.28046 12.2803C3.16708 12.2803 3.06481 12.2119 3.02154 12.1072C2.9781 12.0025 3.00205 11.882 3.08225 11.8018C3.13475 11.7493 3.20606 11.7197 3.28045 11.7197C3.35467 11.7197 3.42599 11.7493 3.47866 11.8018ZM12.1986 20.5217C12.2925 20.6164 12.3063 20.7644 12.2319 20.875C12.1574 20.9857 12.0151 21.0282 11.892 20.9768C11.769 20.9253 11.6992 20.7941 11.7256 20.6635C11.7521 20.5326 11.867 20.4388 12.0004 20.4389C12.075 20.4388 12.1463 20.4687 12.1986 20.5217ZM20.9185 11.8018C21.0131 11.8963 21.0278 12.0444 20.9534 12.1556C20.8792 12.2668 20.7367 12.31 20.6133 12.2589C20.4896 12.2078 20.4195 12.0764 20.4455 11.9454C20.4717 11.8142 20.5868 11.7197 20.7203 11.7197C20.7947 11.7197 20.866 11.7493 20.9185 11.8018ZM12.4464 11.5543C12.5851 11.6928 12.6514 11.888 12.6258 12.0824C12.6003 12.2767 12.4859 12.448 12.3161 12.5462C12.1464 12.6442 11.9407 12.6577 11.7596 12.5828C11.5785 12.5077 11.4425 12.3528 11.3918 12.1635C11.341 11.9741 11.3812 11.772 11.5005 11.6164C11.6199 11.4609 11.8047 11.3698 12.0007 11.3698C12.168 11.3693 12.3284 11.4358 12.4464 11.5543Z" fill="#102D62"/>
</svg>
