<svg width="18" height="14" viewBox="0 0 18 14" fill="none" xmlns="http://www.w3.org/2000/svg">
<path d="M16.4034 13.1006V5.16075C16.4034 4.77652 16.0977 4.46116 15.7253 4.46116H13.5089C13.1351 4.46116 12.8308 4.77651 12.8308 5.16075V13.1006H10.7866V0.699593C10.7866 0.315364 10.4823 0 10.1099 0L7.89081 0.00015205C7.51839 0.00015205 7.21272 0.315504 7.21272 0.699745V13.1008H5.16989V3.26877C5.16989 2.88455 4.86556 2.56996 4.49179 2.56996L2.27463 2.56981C1.90088 2.56981 1.59653 2.88455 1.59653 3.26862V13.1006L0 13.1008V14H18V13.1008L16.4034 13.1006Z" fill="#3D3D3D"/>
</svg>
